<?xml version="1.0" standalone="no"?><!DOCTYPE svg PUBLIC "-//W3C//DTD SVG 1.1//EN" "http://www.w3.org/Graphics/SVG/1.1/DTD/svg11.dtd"><svg t="1733041901690" class="icon" viewBox="0 0 1024 1024" version="1.1" xmlns="http://www.w3.org/2000/svg" p-id="5265" width="256" height="256" xmlns:xlink="http://www.w3.org/1999/xlink"><path d="M208.435 746.474c5.525 0 10.761 1.034 15.703 3.105 4.945 2.07 9.307 4.954 13.089 8.648 3.779 3.697 6.689 8.059 8.723 13.085 2.037 5.027 3.054 10.348 3.054 15.966 0 5.618-1.017 10.94-3.054 15.964-2.034 5.027-4.944 9.388-8.723 13.086-3.782 3.696-8.144 6.653-13.089 8.869-4.943 2.218-10.179 3.328-15.703 3.328-5.816 0-11.124-1.11-15.924-3.328a45.646 45.646 0 0 1-12.868-8.869c-3.782-3.697-6.69-8.059-8.727-13.086-2.034-5.024-3.053-10.347-3.053-15.964 0-5.618 1.019-10.939 3.053-15.966 2.037-5.026 4.944-9.388 8.727-13.085 3.78-3.694 8.069-6.578 12.868-8.648 4.8-2.072 10.107-3.105 15.924-3.105z m181.478 0.886a41.892 41.892 0 0 1 15.924 3.105c5.09 2.07 9.452 4.952 13.086 8.649 3.637 3.695 6.545 8.059 8.727 13.082 2.179 5.027 3.271 10.35 3.271 15.967 0 5.619-1.091 10.94-3.271 15.968-2.182 5.027-5.09 9.386-8.727 13.084-3.634 3.694-7.996 6.65-13.086 8.87-5.091 2.217-10.397 3.325-15.924 3.325-5.525 0-10.761-1.108-15.703-3.325-4.944-2.219-9.234-5.176-12.87-8.87-3.636-3.697-6.544-8.057-8.724-13.084-2.182-5.028-3.272-10.349-3.272-15.968 0-5.617 1.091-10.94 3.272-15.967 2.18-5.023 5.088-9.387 8.724-13.082 3.635-3.697 7.926-6.58 12.87-8.649 4.942-2.069 10.178-3.105 15.703-3.105z m73.289-251.913c8.145 0 14.47 1.108 18.978 3.326 4.508 2.218 7.708 4.952 9.598 8.205 1.891 3.253 2.763 6.726 2.618 10.423-0.146 3.697-0.656 6.876-1.527 9.535a3782.5 3782.5 0 0 1-5.453 16.411c-2.764 8.278-5.89 17.37-9.379 27.276a3666.088 3666.088 0 0 0-10.254 29.492c-3.342 9.759-5.889 17.447-7.634 23.064-3.78 11.827-8.578 20.032-14.395 24.615-5.816 4.581-12.943 6.875-21.376 6.875h-229.03l6.544 39.915H421.76c13.961 0 20.941 6.06 20.941 18.185 0 5.912-1.38 11.014-4.145 15.301-2.762 4.286-8.215 6.432-16.359 6.432H193.601c-5.816 0-10.689-1.332-14.613-3.994-3.925-2.66-7.198-6.134-9.816-10.421-2.616-4.288-4.726-8.944-6.326-13.97-1.597-5.027-2.836-9.759-3.708-14.194-0.291-1.774-1.09-6.06-2.4-12.862a3801.853 3801.853 0 0 1-4.796-25.5c-1.89-10.202-4-21.586-6.326-34.151a18366.786 18366.786 0 0 1-6.982-37.92 19699.773 19699.773 0 0 0-18.757-99.791H87.158c-4.362 0-7.999-1.108-10.906-3.326a28.77 28.77 0 0 1-7.198-7.984 31.07 31.07 0 0 1-3.928-9.977c-0.726-3.549-1.09-6.801-1.09-9.759 0-5.913 1.963-10.792 5.889-14.637 3.928-3.842 9.233-5.765 15.924-5.765h44.061c5.816 0 10.47 0.886 13.961 2.66 3.49 1.775 6.253 3.992 8.287 6.654 2.036 2.66 3.489 5.471 4.364 8.428 0.872 2.955 1.6 5.468 2.18 7.538 0.582 2.366 1.162 5.693 1.745 9.978 0.582 4.289 1.163 8.65 1.744 13.086 0.873 5.323 1.747 10.94 2.617 16.854h298.394z m0 0" fill="#13227a" p-id="5266"></path><path d="M191.856 530.901h232.192c38.955 0 24.277 17.086 21.411 25.505-4.882 14.343-10.234 32.056-13.935 44.644-6.307 21.451-16.91 16.089-19.492 16.089H182.784l-10.124-66.173c-4.093-26.753 14.247-20.065 19.196-20.065z" fill="#13227a" p-id="5267"></path><path d="M581.42 81.48c-202.776 0-367.855 162.44-374.766 365.404a21.642 21.642 0 0 0-0.094 2.032c0 0.118 0.014 0.231 0.016 0.348-0.005 0.163-0.012 0.325-0.016 0.488h0.038c0.092 2.425 0.56 4.741 1.448 6.934 0.991 2.447 2.407 4.57 4.248 6.369a22.238 22.238 0 0 0 6.263 4.317c2.336 1.079 4.92 1.62 7.751 1.62 2.689 0 5.238-0.54 7.644-1.62a21.78 21.78 0 0 0 6.371-4.317c1.839-1.8 3.256-3.923 4.246-6.369 0.889-2.193 1.357-4.509 1.448-6.934h0.093c0.754-24.467 3.999-47.423 9.743-70.599 2.804 1.571 6.243 1.232 9.676 1.236h87.743c-4.856 22.771-7.766 45.961-8.47 69.363h0.06c-0.016 0.341-0.047 0.677-0.047 1.023 0 2.734 0.496 5.325 1.486 7.771 0.991 2.447 2.407 4.57 4.248 6.369a22.238 22.238 0 0 0 6.263 4.317c2.336 1.079 4.92 1.62 7.751 1.62 2.689 0 5.238-0.54 7.644-1.62a21.78 21.78 0 0 0 6.371-4.317c1.839-1.8 3.256-3.923 4.246-6.369 0.992-2.446 1.487-5.036 1.487-7.771 0-0.346-0.031-0.682-0.047-1.023h0.023c0.698-23.347 3.592-46.6 8.686-69.367H561.68v159.419h-32.893l-0.054 0.286a20.376 20.376 0 0 0-3.203-0.272c-2.831 0-5.414 0.503-7.751 1.511a20.502 20.502 0 0 0-6.263 4.209c-1.841 1.799-3.257 3.923-4.248 6.369-0.99 2.447-1.486 5.037-1.486 7.772 0 2.734 0.496 5.325 1.486 7.771 0.991 2.447 2.407 4.57 4.248 6.369a22.224 22.224 0 0 0 6.263 4.317c1.136 0.525 2.333 0.917 3.586 1.187l-0.062 0.329h2.133c0.682 0.069 1.38 0.104 2.093 0.104 0.678 0 1.347-0.035 2.007-0.104h34.144l0.412 187.442c-23.73-12.808-45.769-29.388-65.703-48.622a73.944 73.944 0 0 0-2.581-2.401 15.642 15.642 0 0 0-1.491-1.716 17.205 17.205 0 0 0-5.429-3.587c-2.05-0.859-4.222-1.288-6.513-1.288-2.412 0-4.614 0.429-6.604 1.288a17.49 17.49 0 0 0-5.337 3.587 15.782 15.782 0 0 0-3.62 5.427c-0.844 2.085-1.266 4.292-1.266 6.622s0.423 4.538 1.266 6.621a15.782 15.782 0 0 0 3.62 5.427 18.936 18.936 0 0 0 5.337 3.678c0.169 0.078 0.349 0.134 0.521 0.205 26.265 23.046 55.611 42.174 87.389 55.738-27.272-1.606-53.427-7.279-78.772-14.321a45.369 45.369 0 0 0-2.811-0.687 20.693 20.693 0 0 0-1.733-0.821c-2.398-1.005-4.938-1.506-7.618-1.506-2.822 0-5.397 0.501-7.725 1.506a20.46 20.46 0 0 0-6.243 4.195c-1.835 1.793-3.246 3.91-4.234 6.348-0.987 2.439-1.481 5.02-1.481 7.746 0 2.725 0.494 5.307 1.481 7.745 0.988 2.439 2.399 4.555 4.234 6.348a22.105 22.105 0 0 0 5.075 3.702c1.512 1.203 3.303 1.741 4.831 2.237a371.102 371.102 0 0 0 114.736 18.141c207.168 0 375.121-169.52 375.121-378.617C956.541 250.997 788.588 81.48 581.42 81.48zM363.693 340.531h-95.991c42.505-113.526 152.793-199.985 275.279-217.641-79.072 45.493-149.833 126.736-179.288 217.641z m197.987 0H404.385c28.453-83.549 84.897-151.325 157.295-192.732v192.732z m333.458 0h-99.053c-32.156-93.356-97.054-173.76-179.876-216.965 128.27 13.41 234.944 99.475 278.929 216.965zM601.166 148.692c69.966 40.516 125.13 110.816 154.43 191.839h-154.43V148.692z m0 231.694h166.43c7.209 29.274 11.256 59.405 11.256 89.675 0 23.934-2.623 47.204-7.207 69.743h-170.48V380.386z m0 199.267h159.997c-27.502 83.061-85.311 151.693-159.997 192.519V579.653z m17.077 216.774c86.851-43.202 153.758-121.436 183.337-216.774h93.558C851.37 696.529 745.604 782.339 618.243 796.427zM811.53 539.805c4.302-22.598 6.807-45.856 6.807-69.743 0-30.313-3.708-60.421-10.577-89.675h99.564c6.116 25.61 9.73 52.188 9.73 79.706 0 27.52-3.594 54.105-9.73 79.713H811.53z" fill="#13227a" p-id="5268"></path></svg>